mono-track
 :trackname "track"
 :midi-channel 1
 :midi-initial-volume 0
 :track-delay 0
 :midi-initial-program 1
 :synth "ROLAND-A90"
(DDDR 71.65257 BAR 1 N (NIL 1/2) REST T METER (2 4) MM 70)
(DDDR 84.201126 BAR 2 N ("E4" 3/16) PHRASE-START (4 5 6))
(DDDR 84.67644 N ("F4" 1/16))
(DDDR 95.30219 N ("G4" 1/8))
(DDDR 30.089458 N ("G4" 1/8))
(DDDR 50.952812 BAR 3 N ("A4" 1/8))
(DDDR 58.62745 N ("A4" 1/8))
(DDDR -27.0922 N ("G4" 1/4) PHRASE-END (6))
(DDDR 51.80481 BAR 4 N ("C5" 3/16) PHRASE-START (6))
(DDDR 28.76661 N ("D5" 1/16))
(DDDR -9.453756 N ("F5" 1/16) LEGATO-START T)
(DDDR -9.235024 N ("E5" 1/16) LEGATO-END T)
(DDDR 9.69998 N ("D5" 1/16) LEGATO-START T)
(DDDR -20.529469 N ("C5" 1/16) LEGATO-END T)
(DDDR -83.76355 BAR 5 N ("B4" 1/4))
(DDDR 18.304798 N ("C5" 1/4) PHRASE-END (5 6))
(DDDR 46.53897 BAR 6 N ("E4" 3/16) PHRASE-START (5 6))
(DDDR 13.024543 N ("F4" 1/16))
(DDDR -7.6030254 N ("G4" 1/8))
(DDDR -12.700039 N ("G4" 1/8))
(DDDR 47.223396 BAR 7 N ("A4" 1/8))
(DDDR -18.199553 N ("A4" 1/8))
(DDDR -23.778776 N ("G4" 1/4) PHRASE-END (6))
(DDDR -11.005948 BAR 8 N ("C5" 3/16) PHRASE-START (6))
(DDDR -33.307556 N ("D5" 1/16))
(DDDR -2.530332 N ("E5" 1/8))
(DDDR -5.2945952 N ("D5" 1/16) LEGATO-START T)
(DDDR -5.180446 N ("C5" 1/16) LEGATO-END T)
(DDDR -25.400757 BAR 9 N ("B4" 1/4))
(DDDR 3.7104788 N ("C5" 1/4) PHRASE-END (4 5 6))
(DDDR 48.904167 BAR 10 N ("F5" 1/8) PHRASE-START (4 5 6) LEGATO-START T)
(DDDR 12.759142 N ("E5" 1/8))
(DDDR -19.033642 N ("D5" 1/8))
(DDDR 3.2658863 N ("E5" 1/8) LEGATO-END T)
(DDDR -14.27356 BAR 11 N ("F5" 1/8))
(DDDR 14.1781 N ("E5" 1/8))
(DDDR 26.676855 N ("D5" 1/4) PHRASE-END (6))
(DDDR 26.598995 BAR 12 N ("F5" 1/8) PHRASE-START (6) LEGATO-START T)
(DDDR -13.551244 N ("E5" 1/8))
(DDDR 31.257463 N ("D5" 1/8))
(DDDR 59.965843 N ("C5" 1/8) LEGATO-END T)
(DDDR -10.838862 BAR 13 N ("B4" 1/8))
(DDDR -36.279137 N ("A4" 1/8))
(DDDR -84.99006 N ("G4" 1/4) PHRASE-END (5 6))
(DDDR -15.502892 BAR 14 N ("E4" 3/16) PHRASE-START (5 6))
(DDDR -7.093652 N ("F4" 1/16))
(DDDR -11.400996 N ("G4" 1/8))
(DDDR -10.399034 N ("G4" 1/8))
(DDDR 22.59434 BAR 15 N ("A4" 1/8))
(DDDR -19.6573 N ("A4" 1/8))
(DDDR 69.57079 N ("G4" 1/4) PHRASE-END (6))
(DDDR 89.17489 BAR 16 N ("C5" 3/16) PHRASE-START (6))
(DDDR 62.23642 N ("D5" 1/16))
(DDDR 39.903877 N ("F5" 1/16) LEGATO-START T)
(DDDR 58.98851 N ("E5" 1/16) LEGATO-END T)
(DDDR 77.23707 N ("D5" 1/16) LEGATO-START T)
(DDDR 41.545235 N ("C5" 1/16) LEGATO-END T)
(DDDR 33.62314 BAR 17 N ("B4" 1/4))
(DDDR 51.590176 N ("C5" 1/4) PHRASE-END (4 5 6))
mono-track
 :trackname "track"
 :midi-channel 2
 :midi-initial-volume -5
 :track-delay 0
 :midi-initial-program 1
 :synth "ROLAND-A90"
(DDDR 137.21619 BAR 1 N (NIL 1/2) REST T METER (2 4) MM 70)
(DDDR 41.23735 BAR 2 N ("C4" 3/16) PHRASE-START (4 5 6))
(DDDR 17.468304 N ("D4" 1/16))
(DDDR -44.18538 N ("E4" 1/4))
(DDDR 44.2023 BAR 3 N ("C4" 1/2))
(DDDR 164.38925 BAR 4 N ("G4" 1/2) PHRASE-END (6) PHRASE-START (6))
(DDDR 71.28715 BAR 5 N ("G4" 1/8))
(DDDR 51.191887 N ("F4" 1/8))
(DDDR -11.028339 N ("E4" 1/4) PHRASE-END (5 6))
(DDDR 33.792328 BAR 6 N ("C4" 1/2) PHRASE-START (5 6))
(DDDR 71.94409 BAR 7 N ("C4" 1/4))
(DDDR 20.299416 N ("E4" 1/4) PHRASE-END (6))
(DDDR 17.078045 BAR 8 N ("E4" 1/4) PHRASE-START (6))
(DDDR -11.490051 N ("G4" 1/8))
(DDDR 32.64015 N ("F4" 1/16))
(DDDR 44.564194 N ("E4" 1/16))
(DDDR -41.368217 BAR 9 N ("F4" 1/4))
(DDDR -5.0569267 N ("E4" 1/4) PHRASE-END (4 5 6))
(DDDR 21.380482 BAR 10 N ("D5" 1/8) PHRASE-START (4 5 6) LEGATO-START T)
(DDDR -30.94389 N ("C5" 1/8))
(DDDR -21.553295 N ("B4" 1/8))
(DDDR -39.561363 N ("C5" 1/8) LEGATO-END T)
(DDDR -29.87284 BAR 11 N ("D5" 1/8))
(DDDR -27.266226 N ("C5" 1/8))
(DDDR -45.051765 N ("B4" 1/4) PHRASE-END (6))
(DDDR 26.917265 BAR 12 N ("G4" 1/4) PHRASE-START (6))
(DDDR 52.64217 N ("A4" 1/4))
(DDDR -4.8612175 BAR 13 N ("G4" 1/8))
(DDDR -49.306053 N ("F#4" 1/8))
(DDDR -48.436584 N ("B3" 1/4) PHRASE-END (5 6))
(DDDR -33.49664 BAR 14 N ("C4" 1/2) PHRASE-START (5 6))
(DDDR -10.08898 BAR 15 N (NIL 1/8) REST T)
(DDDR -44.878143 N ("F4" 1/8))
(DDDR 28.657732 N ("E4" 1/4) PHRASE-END (6))
(DDDR 40.93524 BAR 16 N ("A4" 1/2) PHRASE-START (6))
(DDDR 34.687317 BAR 17 N ("G4" 1/8))
(DDDR 8.937672 N ("F4" 1/8))
(DDDR -32.250957 N ("E4" 1/4) PHRASE-END (4 5 6))
mono-track
 :trackname "track"
 :midi-channel 3
 :midi-initial-volume -5
 :track-delay 0
 :midi-initial-program 1
 :synth "ROLAND-A90"
(DDDR -124.25389 BAR 1 N (NIL 1/2) REST T METER (2 4) MM 70)
(DDDR -91.59 BAR 2 N ("G3" 1/2) PHRASE-START (4 5 6))
(DDDR -118.52814 BAR 3 N ("F3" 1/4))
(DDDR -14.507437 N ("E3" 1/4) PHRASE-END (6))
(DDDR 52.218876 BAR 4 N ("C4" 1/2) PHRASE-START (6))
(DDDR 95.927704 BAR 5 N ("D4" 1/4))
(DDDR 31.581257 N ("C4" 1/4) PHRASE-END (5 6))
(DDDR 13.910768 BAR 6 N (NIL 1/4 1/8) REST T PHRASE-START (5 6))
(DDDR 24.969269 N ("C3" 1/8))
(DDDR 402.95752 BAR 7 N (NIL 1) REST T)
(DDDR 281.10175 N ("D4" 1/4) PHRASE-END (6) PHRASE-START (6))
(DDDR 161.60912 N (NIL 1/4) REST T)
(DDDR 91.39697 BAR 10 N ("G3" 1/2) PHRASE-END (4 5 6) PHRASE-START
 (4 5 6))
(DDDR 121.9 BAR 11 N ("G3" 1/2))
(DDDR 104.37315 BAR 12 N (NIL 1/2 1/8) REST T)
(DDDR 45.184875 N ("C4" 1/8) PHRASE-END (6) PHRASE-START (6))
(DDDR 244.95764 N (NIL 1/2 1/8) REST T)
(DDDR 223.94865 N ("E3" 1/8) PHRASE-END (5 6) PHRASE-START (5 6))
(DDDR 191.99918 BAR 15 N ("C4" 1/4))
(DDDR 126.74556 N (NIL 1/4) REST T)
(DDDR 44.324203 BAR 16 N ("C4" 1/4 1/8) PHRASE-END (6) PHRASE-START (6))
(DDDR 64.316536 N ("D4" 1/8))
(DDDR 81.31826 BAR 17 N ("D4" 1/4))
(DDDR 71.371704 N ("C4" 1/4) PHRASE-END (4 5 6))
mono-track
 :trackname "track"
 :midi-channel 4
 :midi-initial-volume -5
 :track-delay 0
 :midi-initial-program 1
 :synth "ROLAND-A90"
(DDDR 202.09036 BAR 1 N (NIL 1/2) REST T METER (2 4) MM 70)
(DDDR 131.44415 BAR 2 N ("C3" 1/2) PHRASE-START (4 5 6))
(DDDR 115.07879 BAR 3 N ("C3" 1/2))
(DDDR 77.41999 BAR 4 N ("E3" 1/4) PHRASE-END (6) PHRASE-START (6))
(DDDR 131.06949 N ("C3" 1/8))
(DDDR 120.56148 N ("E3" 1/8))
(DDDR 189.35736 BAR 5 N ("G3" 1/4))
(DDDR 233.60425 N ("C3" 1/4) PHRASE-END (5 6))
(DDDR 153.81622 BAR 6 N ("C3" 3/16) PHRASE-START (5 6))
(DDDR 102.2652 N ("D3" 1/16))
(DDDR 115.52053 N ("E3" 1/8))
(DDDR 145.15706 N ("C3" 1/8))
(DDDR 83.56594 BAR 7 N ("F3" 1/8))
(DDDR 114.573944 N ("A3" 1/8))
(DDDR 54.136517 N ("C4" 1/4) PHRASE-END (6))
(DDDR 90.170364 BAR 8 N ("A3" 1/4) PHRASE-START (6))
(DDDR 168.8609 N ("G3" 1/4))
(DDDR 168.65591 BAR 9 N ("G2" 1/4))
(DDDR 133.46616 N ("C3" 1/4) PHRASE-END (4 5 6))
(DDDR 14.168957 BAR 10 N ("G2" 1/2) PHRASE-START (4 5 6))
(DDDR 114.29766 BAR 11 N ("G2" 1/2))
(DDDR 99.86532 BAR 12 N ("B2" 1/8) PHRASE-END (6) PHRASE-START (6)
 LEGATO-START T)
(DDDR 119.29027 N ("C3" 1/8))
(DDDR 157.7926 N ("F3" 1/8))
(DDDR 103.42888 N ("F#3" 1/8) LEGATO-END T)
(DDDR 125.81632 BAR 13 N ("G3" 1/8))
(DDDR 102.03216 N ("D3" 1/8))
(DDDR 139.24155 N ("G2" 1/4) PHRASE-END (5 6))
(DDDR 152.05968 BAR 14 N ("E3" 3/16) PHRASE-START (5 6))
(DDDR 111.21355 N ("F3" 1/16))
(DDDR 66.82875 N ("G3" 1/8))
(DDDR 102.2502 N ("E3" 1/8))
(DDDR 74.69452 BAR 15 N ("F3" 1/8))
(DDDR 58.0755 N ("A3" 1/8))
(DDDR 81.909096 N ("C4" 1/4) PHRASE-END (6))
(DDDR 76.4462 BAR 16 N ("A3" 1/8) PHRASE-START (6))
(DDDR 92.76444 N ("F3" 1/8))
(DDDR 131.75706 N ("D3" 1/8))
(DDDR 80.9366 N ("F3" 1/8))
(DDDR 166.75589 BAR 17 N ("G3" 1/4))
(DDDR 183.11525 N ("C3" 1/4) PHRASE-END (4 5 6))
